# xmcd CD database file generated by OrangeCD 6.4
#
# Track frame offsets:
#	150
#	15695
#	32751
#	49045
#	55734
#	63032
#	66943
#	91543
#	104214
#	159363
#	184266
#	207422
#	213702
#
# Disc length: 3717 seconds
#
# Revision: 0
# Processed by: cddbd v1.5.2PL0 Copyright (c) Steve Scherf et al.
# Submitted via: OrangeCD 6.4
#
DISCID=b40e830d
DTITLE=Jimi Hendrix - Studio Sessions Volume. 1
DYEAR=2008
DGENRE=Blues Rock
TTITLE0=Voodoo Child (Slight Return)
TTITLE1=Voodoo Child (Slight Return)
TTITLE2=Voodoo Child (Slight Return)
TTITLE3=Voodoo Child (Slight Return)
TTITLE4=Voodoo Child (Slight Return)
TTITLE5=Voodoo Child (Slight Return)
TTITLE6=Voodoo Child (Slight Return)
TTITLE7=Little Miss Strange
TTITLE8=Jazz Jimi Jazz Jam
TTITLE9=Have You Ever Been (To Electric Ladyland)
TTITLE10=Rainy Day Shuffle
TTITLE11=And The Gods Made Love
TTITLE12=JS6 Jam 1
EXTD=
EXTT0=
EXTT1=
EXTT2=
EXTT3=
EXTT4=
EXTT5=
EXTT6=
EXTT7=
EXTT8=
EXTT9=
EXTT10=
EXTT11=
EXTT12=
PLAYORDER=
